<svg width="1408" height="195" viewBox="0 0 1408 195" fill="none" xmlns="http://www.w3.org/2000/svg">
<path d="M187.06 129.715C113.215 136.034 62.3218 173.629 0.432434 179.794V195H1407.52V103.263C1338.62 103.263 1329.43 131.281 1297.01 123.568C1264.58 115.855 1230.53 62.8252 1192.7 65.6299C1154.87 68.4346 1134.11 -5.98681 1054.41 1.02493C974.701 8.03667 916.039 88.1218 852.544 53.7643C789.049 19.4067 775.553 37.5353 708.006 30.5236C640.458 23.5119 610.867 107.509 546.888 104.825C482.91 102.14 465.831 172.004 400.54 165.524C321.422 157.671 328.308 153.273 293.129 143.088C257.949 132.902 226.418 126.347 187.06 129.715Z" fill="url(#paint0_linear_143_2150)"/>
<defs>
<linearGradient id="paint0_linear_143_2150" x1="703.978" y1="0.558594" x2="703.978" y2="276.334" gradientUnits="userSpaceOnUse">
<stop stop-color="#FAA05F" stop-opacity="0.26"/>
<stop offset="0.998978" stop-color="white" stop-opacity="0"/>
</linearGradient>
</defs>
</svg>

