<svg width="1412" height="184" viewBox="0 0 1412 184" fill="none" xmlns="http://www.w3.org/2000/svg">
<path d="M2.43243 181.794C64.3218 175.629 115.215 138.034 189.06 131.715C228.418 128.347 259.949 134.902 295.129 145.088C330.308 155.273 323.422 159.671 402.54 167.524C467.831 174.004 484.91 104.14 548.888 106.825C612.867 109.509 642.458 25.5119 710.006 32.5236C777.553 39.5353 791.049 21.4067 854.544 55.7643C918.039 90.1218 976.702 10.0367 1056.41 3.02493C1136.11 -3.98681 1156.87 70.4346 1194.7 67.6299C1232.53 64.8252 1266.58 117.855 1299.01 125.568C1331.43 133.281 1340.62 105.263 1409.52 105.263" stroke="#FF993C" stroke-width="4" stroke-linecap="round" stroke-linejoin="round"/>
</svg>
